<?xml version="1.0" encoding="utf-8"?>
<!-- Generator: Adobe Illustrator 24.2.1, SVG Export Plug-In . SVG Version: 6.00 Build 0)  -->
<svg version="1.1" id="Layer_1" xmlns="http://www.w3.org/2000/svg" xmlns:xlink="http://www.w3.org/1999/xlink" x="0px" y="0px"
	 viewBox="0 0 1024 1024" style="enable-background:new 0 0 1024 1024;" xml:space="preserve">
<style type="text/css">
	.st0{fill-rule:evenodd;clip-rule:evenodd;fill:none;stroke:#7289DA;stroke-width:10;stroke-miterlimit:10;}
</style>
<path class="st0" d="M159.51,99.24c64.7-1.41,111.71,29.42,156.75,48.23c9.01,3.76,16.9,4.73,24.12,10.2
	c14.63,11.11,48.92,39.54,64.93,45.45c40.12-17.08,102.78-27.4,157.68-16.7c18.88,3.68,38.9,15.97,54.72,15.77
	c4.68-7.16,13.52-10.72,20.41-15.77c45.46-33.31,95.38-59.85,156.75-77.91c22.19-6.53,69.6-18.11,84.41,1.86
	c12.2,16.45,6.8,60.51,1.86,81.62c-16.5,70.44-37.44,131.17-65.85,188.29c16.81,14.87,59.36,33.01,68.64,51.94
	c16.8,34.3-65.01,64.39-85.33,75.13c0,0.31,0,0.62,0,0.93c7.1,23.48,25.47,52.29,25.04,76.99c-1.55,2.16-3.09,4.33-4.64,6.49
	c-9.81,2.82-20.95,2.1-33.39,1.86c7.42,15.15,14.84,30.3,22.26,45.45c16.1,33.27,30.19,66.68,49.16,97.39
	c14.71,23.8,35.01,45.74,45.45,73.28c18.77,49.49,0.72,103.83-32.46,122.43c-38.05,21.34-101.27,13.69-138.2-1.86
	c-50.54-21.28-92.57-60.96-106.67-118.72c-6.03-24.72-1.89-50.18-6.49-77.91c-5.66-34.1-6.61-70.29-6.49-108.52
	c-14.84,5.87-29.68,11.75-44.52,17.62c-50.27,13.33-131.18,6.82-161.39-18.55c-0.93,0.93-1.86,1.86-2.78,2.78
	c6.25,22.45-1.78,78.18-5.57,100.17c-5.32,30.9-0.47,59.86-7.42,87.19c-14.08,55.38-55.43,94.03-103.88,115.01
	c-36.12,15.64-102.18,25.64-140.06,2.78c-31.95-19.28-53.42-69.48-33.39-120.58c10.34-26.37,28.51-46.94,42.67-69.57
	c19.42-31.04,34.81-65.38,51.01-99.25c7.1-14.84,20.5-31.65,23.19-49.16c-2.78,0-5.57,0-8.35,0c-14.39,4.66-28.96-0.81-29.68-13.91
	c5.72-14.88,26.78-60.47,25.04-73.28c-22.54-6.41-96.11-41.38-85.33-72.35c5.9-16.95,53.25-40.92,68.64-52.87
	c-10.2-22.88-20.41-45.76-30.61-68.64c-15.21-36.55-25.53-78.82-34.32-120.58c-5.34-25.36-12.03-73.94,7.42-87.19
	C148.38,102.95,153.94,101.09,159.51,99.24z"/>
<path class="st0" d="M162.29,122.43c-2.78,1.24-5.57,2.47-8.35,3.71c-5.42,67.92,20.93,141.33,41.74,190.14
	c4.25,9.96,31.68,57.48,29.68,65.85c-5.04,21.15-65.96,46-70.49,62.14c14.44,10.61,28.33,22.22,45.45,30.61
	c13.5,6.61,30.33,9.71,41.74,18.55c-0.53,17.76-24.89,70.65-20.41,77.91c27.51-4.02,55.04-8.04,82.55-12.06
	c18.06,5.54,11.14,33.28,15.77,51.94c0.31,0,0.62,0,0.93,0c15.43-1.24,31.26-7.5,42.67-13.91c-0.72-6.79-0.63-9.34,3.71-12.99
	c45.27,22.71,110.7,55.5,185.51,38.03c25.38-5.93,48.21-16.78,69.57-27.83c7.71-3.99,14.45-11.13,24.12-12.99
	c0.62,0.62,1.24,1.24,1.86,1.86c6.37,4.22,3.91,10.84,6.49,15.77c13.2,2.54,27.32,13.95,41.74,11.13
	c1.09-16.38,1.68-37.19,8.35-48.23c2.47-1.24,4.95-2.47,7.42-3.71c27.82,4.33,55.65,8.66,83.48,12.99c0.31-0.62,0.62-1.24,0.93-1.86
	c-7.79-23.62-18.05-49.53-21.33-76.99c27.13-15.2,70.87-23.49,86.26-50.09c-18.81-22.71-59.78-29.34-71.42-58.43
	c12.06-27.2,24.12-54.42,36.17-81.62c12.79-30.85,19.43-63.08,27.83-98.32c5.48-23.02,11.71-51.29,7.42-78.84
	c-21.54-8.36-53.12,4.56-71.42,10.2c-31.57,9.73-60.33,18.99-86.26,34.32c-20.39,12.05-38.57,26.13-60.29,37.1
	c-8.73,4.41-11.31,16.02-19.48,20.41c-14.19,3.21-30.93-11.86-43.59-15.77c-17.62-2.47-35.25-4.95-52.87-7.42
	c-29.4-4.59-74.05,0.82-96.46,10.2c-10.89,4.56-20.74,12.94-34.32,13.91c-9.28-5.26-14.77-16.95-24.12-23.19
	C325.44,173.33,237.09,122.88,162.29,122.43z"/>
<path class="st0" d="M289.36,723.47c-1.03,24.48-36.32,69.51-52.87,78.84c0-0.31,0-0.62,0-0.93c12.26-22.19,29.2-40.32,37.1-67.71
	c1.24-11.13,2.47-22.26,3.71-33.39c5.26-0.31,10.51-0.62,15.77-0.93c7.74-10.34,23.24-42.26,14.84-63.07
	c-3.09-2.78-6.18-5.57-9.28-8.35c-1.55-14.53-3.09-29.06-4.64-43.59c-0.31,0-0.62,0-0.93,0c-11.44,1.86-22.88,3.71-34.32,5.57
	c-25.66,51.01-51.33,102.03-76.99,153.04c-15.18,25.52-38.45,49.07-48.23,78.84c-12.98,39.5,1.9,77.03,25.04,90.9
	c30.5,18.28,89.26,9.38,116.87-3.71c45.05-21.37,81.98-51.99,94.61-105.74c2.16-29.99,4.33-59.98,6.49-89.97
	c3.68-22.01,10.29-71.59,3.71-95.54c-0.31,0-0.62,0-0.93,0c-16.08,5.56-32.16,11.13-48.23,16.7
	C332.18,673.27,324.85,721.91,289.36,723.47z"/>
<path class="st0" d="M635.33,617.73c-0.4,37.86,0.21,74.05,5.57,106.67c4.79,29.17,0.27,56.35,6.49,82.55
	c11.51,48.43,46.76,79.7,87.19,99.25c27.95,13.51,81.58,25.27,117.8,9.28c26.76-11.82,43.58-47.06,31.54-89.97
	c-7.55-26.9-27.27-47.05-40.81-68.64c-18.55-34.93-37.1-69.88-55.65-104.81c-7.24-13.94-20.21-55.24-31.54-62.14
	c-11.44-1.85-22.88-3.71-34.32-5.57c-1.65,18.1,1.92,45.47-13.91,50.09c-0.81,24.57,1.47,57.33,17.62,64.93
	c4.95,0.62,9.89,1.24,14.84,1.86c-0.8,42.1,18.6,60.86,25.97,90.9c-0.31,0-0.62,0-0.93,0c0-0.62,0-1.24,0-1.86
	c-22.94-9.53-31.07-41.15-38.96-66.78c-27.19-2-35.03-31.33-39.88-55.65c-2.02-10.13,2.13-29.81-4.64-35.25
	C666.25,627.62,650.79,622.68,635.33,617.73z"/>
</svg>
